<svg width="500" height="500" xmlns="http://www.w3.org/2000/svg">
 <!-- Created with Method Draw - http://github.com/duopixel/Method-Draw/ -->
 <g>
  <title>background</title>
  <rect fill="none" id="canvas_background" height="502" width="502" y="-1" x="-1"/>
  <g display="none" overflow="visible" y="0" x="0" height="100%" width="100%" id="canvasGrid">
   <rect fill="url(#gridpattern)" stroke-width="0" y="0" x="0" height="100%" width="100%"/>
  </g>
 </g>
 <g>
  <title>Layer 1</title>
  <line stroke-linecap="undefined" stroke-linejoin="undefined" id="svg_4" y2="499.5" x2="400" y1="-1" x1="403" stroke-width="1.5" fill="#f2fcfc"/>
  <line stroke-linecap="undefined" stroke-linejoin="undefined" id="svg_5" y2="503" x2="102" y1="0" x1="101" stroke-width="1.5" fill="#f2fcfc"/>
  <line stroke-linecap="undefined" stroke-linejoin="undefined" id="svg_6" y2="-6.5" x2="278.5" y1="-19.5" x1="226.5" stroke-opacity="null" stroke-width="1.5" stroke="#000" fill="none"/>
  <line stroke-linecap="undefined" stroke-linejoin="undefined" id="svg_8" y2="100" x2="500" y1="100" x1="2" stroke-width="1.5" fill="#f2fcfc"/>
  <line stroke-linecap="undefined" stroke-linejoin="undefined" id="svg_9" y2="400" x2="500" y1="400" x1="1" stroke-width="1.5" fill="#f2fcfc"/>
  <line stroke-linecap="undefined" stroke-linejoin="undefined" id="svg_10" y2="90" x2="149.5" y1="10" x1="149.5" stroke-width="1.5" fill="#f2fcfc"/>
  <line stroke-linecap="undefined" stroke-linejoin="undefined" id="svg_11" y2="90" x2="350" y1="10" x1="350" stroke-width="1.5" fill="#f2fcfc"/>
  <line stroke-linecap="undefined" stroke-linejoin="undefined" id="svg_12" y2="490" x2="350" y1="410" x1="350" stroke-width="1.5" fill="#f2fcfc"/>
  <line stroke-linecap="undefined" stroke-linejoin="undefined" id="svg_13" y2="490" x2="150" y1="410" x1="150" stroke-width="1.5" fill="#f2fcfc"/>
  <line stroke-linecap="undefined" stroke-linejoin="undefined" id="svg_14" y2="150" x2="90" y1="150" x1="10" stroke-width="1.5" fill="#f2fcfc"/>
  <line stroke-linecap="undefined" stroke-linejoin="undefined" id="svg_15" y2="350" x2="90" y1="350" x1="10" stroke-width="1.5" fill="#f2fcfc"/>
  <line stroke-linecap="undefined" stroke-linejoin="undefined" id="svg_16" y2="350" x2="490" y1="350" x1="410" stroke-width="1.5" fill="#f2fcfc"/>
  <line stroke-linecap="undefined" stroke-linejoin="undefined" id="svg_17" y2="150" x2="490" y1="150" x1="410" stroke-width="1.5" fill="#f2fcfc"/>
 </g>
</svg>